<?xml version="1.0" encoding="UTF-8" standalone="no"?>
<!DOCTYPE svg PUBLIC "-//W3C//DTD SVG 1.1//EN" "http://www.w3.org/Graphics/SVG/1.1/DTD/svg11.dtd">
<svg viewBox="-226 0 898 898" version="1.1" xmlns="http://www.w3.org/2000/svg" xmlns:xlink="http://www.w3.org/1999/xlink" xml:space="preserve" xmlns:serif="http://www.serif.com/" style="fill-rule:evenodd;clip-rule:evenodd;stroke-linejoin:round;stroke-miterlimit:2;">
    <g transform="matrix(1,0,0,1,-578,-360)">
        <g transform="matrix(1.58343,0,0,1.55555,-874.004,-543.775)">
            <path d="M1015.71,789.959C1039.17,735.145 1057.55,668.719 1057.55,581C1057.55,823.595 1198.1,903.325 1198.1,1025C1198.1,1146.67 1104.54,1158 1057.55,1158C1010.56,1158 917,1146.67 917,1025C917,988.662 929.536,956.064 947.12,921.753C941.053,959.564 946.4,1007.08 985.838,1034.86C1049.84,1079.94 1106.09,1006.14 1107.09,926.858C1108.07,850.001 1064.37,760.062 1015.71,789.959Z" style="fill:rgb(76,165,243);"/>
        </g>
    </g>
</svg>
